<mxfile modified="2023-10-08T16:04:24.418Z" host="app.diagrams.net" agent="Mozilla/5.0 (Macintosh; Intel Mac OS X 10_15_7) AppleWebKit/537.36 (KHTML, like Gecko) Chrome/117.0.0.0 Safari/537.36" etag="1O5_jiX1Ay3Y5-jUGkjB" version="22.0.4" type="device">
  <diagram id="Ht1M8jgEwFfnCIfOTk4-" name="Page-1">
    <mxGraphModel dx="954" dy="595" grid="1" gridSize="10" guides="1" tooltips="1" connect="1" arrows="1" fold="1" page="1" pageScale="1" pageWidth="1169" pageHeight="827" math="0" shadow="0">
      <root>
        <mxCell id="0" />
        <mxCell id="1" parent="0" />
        <mxCell id="UEzPUAAOIrF-is8g5C7q-74" value="AWS Cloud" style="points=[[0,0],[0.25,0],[0.5,0],[0.75,0],[1,0],[1,0.25],[1,0.5],[1,0.75],[1,1],[0.75,1],[0.5,1],[0.25,1],[0,1],[0,0.75],[0,0.5],[0,0.25]];outlineConnect=0;gradientColor=none;html=1;whiteSpace=wrap;fontSize=12;fontStyle=0;shape=mxgraph.aws4.group;grIcon=mxgraph.aws4.group_aws_cloud_alt;strokeColor=#232F3E;fillColor=none;verticalAlign=top;align=left;spacingLeft=30;fontColor=#232F3E;dashed=0;labelBackgroundColor=#ffffff;container=1;pointerEvents=0;collapsible=0;recursiveResize=0;" parent="1" vertex="1">
          <mxGeometry x="50" y="81" width="570" height="509" as="geometry" />
        </mxCell>
        <mxCell id="tcK6pej3iTs73xDBp76l-12" value="" style="edgeStyle=orthogonalEdgeStyle;rounded=0;orthogonalLoop=1;jettySize=auto;html=1;" edge="1" parent="UEzPUAAOIrF-is8g5C7q-74" source="tcK6pej3iTs73xDBp76l-1" target="tcK6pej3iTs73xDBp76l-7">
          <mxGeometry relative="1" as="geometry" />
        </mxCell>
        <mxCell id="tcK6pej3iTs73xDBp76l-1" value="ready-handler" style="sketch=0;outlineConnect=0;fontColor=#232F3E;gradientColor=none;strokeColor=#ffffff;fillColor=#232F3E;dashed=0;verticalLabelPosition=middle;verticalAlign=bottom;align=center;html=1;whiteSpace=wrap;fontSize=10;fontStyle=1;spacing=3;shape=mxgraph.aws4.productIcon;prIcon=mxgraph.aws4.lambda;" vertex="1" parent="UEzPUAAOIrF-is8g5C7q-74">
          <mxGeometry x="260" y="159" width="80" height="100" as="geometry" />
        </mxCell>
        <mxCell id="tcK6pej3iTs73xDBp76l-2" value="&lt;h1&gt;1&lt;/h1&gt;&lt;p&gt;triggered every 5min and has a duration of 2min20s&lt;/p&gt;" style="text;html=1;strokeColor=none;fillColor=none;spacing=5;spacingTop=-20;whiteSpace=wrap;overflow=hidden;rounded=0;" vertex="1" parent="UEzPUAAOIrF-is8g5C7q-74">
          <mxGeometry x="30" y="70" width="220" height="100" as="geometry" />
        </mxCell>
        <mxCell id="tcK6pej3iTs73xDBp76l-5" value="" style="edgeStyle=orthogonalEdgeStyle;rounded=0;orthogonalLoop=1;jettySize=auto;html=1;" edge="1" parent="UEzPUAAOIrF-is8g5C7q-74" source="tcK6pej3iTs73xDBp76l-4" target="tcK6pej3iTs73xDBp76l-1">
          <mxGeometry relative="1" as="geometry" />
        </mxCell>
        <mxCell id="tcK6pej3iTs73xDBp76l-6" value="5min" style="edgeLabel;html=1;align=center;verticalAlign=middle;resizable=0;points=[];" vertex="1" connectable="0" parent="tcK6pej3iTs73xDBp76l-5">
          <mxGeometry x="-0.2391" y="4" relative="1" as="geometry">
            <mxPoint as="offset" />
          </mxGeometry>
        </mxCell>
        <mxCell id="tcK6pej3iTs73xDBp76l-4" value="" style="sketch=0;points=[[0,0,0],[0.25,0,0],[0.5,0,0],[0.75,0,0],[1,0,0],[0,1,0],[0.25,1,0],[0.5,1,0],[0.75,1,0],[1,1,0],[0,0.25,0],[0,0.5,0],[0,0.75,0],[1,0.25,0],[1,0.5,0],[1,0.75,0]];outlineConnect=0;fontColor=#232F3E;fillColor=#E7157B;strokeColor=#ffffff;dashed=0;verticalLabelPosition=bottom;verticalAlign=top;align=center;html=1;fontSize=12;fontStyle=0;aspect=fixed;shape=mxgraph.aws4.resourceIcon;resIcon=mxgraph.aws4.eventbridge;" vertex="1" parent="UEzPUAAOIrF-is8g5C7q-74">
          <mxGeometry x="90" y="170" width="78" height="78" as="geometry" />
        </mxCell>
        <mxCell id="tcK6pej3iTs73xDBp76l-15" value="" style="edgeStyle=orthogonalEdgeStyle;rounded=0;orthogonalLoop=1;jettySize=auto;html=1;" edge="1" parent="UEzPUAAOIrF-is8g5C7q-74" source="tcK6pej3iTs73xDBp76l-7" target="tcK6pej3iTs73xDBp76l-14">
          <mxGeometry relative="1" as="geometry" />
        </mxCell>
        <mxCell id="tcK6pej3iTs73xDBp76l-17" value="triggers" style="edgeLabel;html=1;align=center;verticalAlign=middle;resizable=0;points=[];" vertex="1" connectable="0" parent="tcK6pej3iTs73xDBp76l-15">
          <mxGeometry x="-0.0704" y="-3" relative="1" as="geometry">
            <mxPoint as="offset" />
          </mxGeometry>
        </mxCell>
        <mxCell id="tcK6pej3iTs73xDBp76l-7" value="" style="sketch=0;outlineConnect=0;fontColor=#232F3E;gradientColor=none;fillColor=#E7157B;strokeColor=none;dashed=0;verticalLabelPosition=bottom;verticalAlign=top;align=center;html=1;fontSize=12;fontStyle=0;aspect=fixed;pointerEvents=1;shape=mxgraph.aws4.alarm;" vertex="1" parent="UEzPUAAOIrF-is8g5C7q-74">
          <mxGeometry x="420" y="170" width="78" height="78" as="geometry" />
        </mxCell>
        <mxCell id="tcK6pej3iTs73xDBp76l-13" value="&lt;h1&gt;3&lt;/h1&gt;&lt;p&gt;sets the CW alarm to âœ…&lt;/p&gt;" style="text;html=1;strokeColor=none;fillColor=none;spacing=5;spacingTop=-20;whiteSpace=wrap;overflow=hidden;rounded=0;" vertex="1" parent="UEzPUAAOIrF-is8g5C7q-74">
          <mxGeometry x="410" y="99" width="190" height="81" as="geometry" />
        </mxCell>
        <mxCell id="tcK6pej3iTs73xDBp76l-19" value="triggers" style="edgeStyle=orthogonalEdgeStyle;rounded=0;orthogonalLoop=1;jettySize=auto;html=1;" edge="1" parent="UEzPUAAOIrF-is8g5C7q-74" source="tcK6pej3iTs73xDBp76l-14" target="tcK6pej3iTs73xDBp76l-18">
          <mxGeometry relative="1" as="geometry" />
        </mxCell>
        <mxCell id="tcK6pej3iTs73xDBp76l-14" value="" style="sketch=0;points=[[0,0,0],[0.25,0,0],[0.5,0,0],[0.75,0,0],[1,0,0],[0,1,0],[0.25,1,0],[0.5,1,0],[0.75,1,0],[1,1,0],[0,0.25,0],[0,0.5,0],[0,0.75,0],[1,0.25,0],[1,0.5,0],[1,0.75,0]];outlineConnect=0;fontColor=#232F3E;fillColor=#E7157B;strokeColor=#ffffff;dashed=0;verticalLabelPosition=bottom;verticalAlign=top;align=center;html=1;fontSize=12;fontStyle=0;aspect=fixed;shape=mxgraph.aws4.resourceIcon;resIcon=mxgraph.aws4.eventbridge;" vertex="1" parent="UEzPUAAOIrF-is8g5C7q-74">
          <mxGeometry x="430" y="299" width="78" height="78" as="geometry" />
        </mxCell>
        <mxCell id="tcK6pej3iTs73xDBp76l-16" value="&lt;h1&gt;4&lt;/h1&gt;&lt;p&gt;triggers another rule&lt;/p&gt;" style="text;html=1;strokeColor=none;fillColor=none;spacing=5;spacingTop=-20;whiteSpace=wrap;overflow=hidden;rounded=0;" vertex="1" parent="UEzPUAAOIrF-is8g5C7q-74">
          <mxGeometry x="430" y="399" width="190" height="81" as="geometry" />
        </mxCell>
        <mxCell id="tcK6pej3iTs73xDBp76l-21" value="" style="edgeStyle=orthogonalEdgeStyle;rounded=0;orthogonalLoop=1;jettySize=auto;html=1;" edge="1" parent="UEzPUAAOIrF-is8g5C7q-74" source="tcK6pej3iTs73xDBp76l-18" target="tcK6pej3iTs73xDBp76l-20">
          <mxGeometry relative="1" as="geometry" />
        </mxCell>
        <mxCell id="tcK6pej3iTs73xDBp76l-22" value="HTTP" style="edgeLabel;html=1;align=center;verticalAlign=middle;resizable=0;points=[];" vertex="1" connectable="0" parent="tcK6pej3iTs73xDBp76l-21">
          <mxGeometry x="0.033" relative="1" as="geometry">
            <mxPoint as="offset" />
          </mxGeometry>
        </mxCell>
        <mxCell id="tcK6pej3iTs73xDBp76l-18" value="trigger-handler" style="sketch=0;outlineConnect=0;fontColor=#232F3E;gradientColor=none;strokeColor=#ffffff;fillColor=#232F3E;dashed=0;verticalLabelPosition=middle;verticalAlign=bottom;align=center;html=1;whiteSpace=wrap;fontSize=10;fontStyle=1;spacing=3;shape=mxgraph.aws4.productIcon;prIcon=mxgraph.aws4.lambda;" vertex="1" parent="UEzPUAAOIrF-is8g5C7q-74">
          <mxGeometry x="270" y="289" width="80" height="100" as="geometry" />
        </mxCell>
        <mxCell id="tcK6pej3iTs73xDBp76l-20" value="CFN wait condition" style="sketch=0;points=[[0,0,0],[0.25,0,0],[0.5,0,0],[0.75,0,0],[1,0,0],[0,1,0],[0.25,1,0],[0.5,1,0],[0.75,1,0],[1,1,0],[0,0.25,0],[0,0.5,0],[0,0.75,0],[1,0.25,0],[1,0.5,0],[1,0.75,0]];points=[[0,0,0],[0.25,0,0],[0.5,0,0],[0.75,0,0],[1,0,0],[0,1,0],[0.25,1,0],[0.5,1,0],[0.75,1,0],[1,1,0],[0,0.25,0],[0,0.5,0],[0,0.75,0],[1,0.25,0],[1,0.5,0],[1,0.75,0]];outlineConnect=0;fontColor=#232F3E;fillColor=#E7157B;strokeColor=#ffffff;dashed=0;verticalLabelPosition=bottom;verticalAlign=top;align=center;html=1;fontSize=12;fontStyle=0;aspect=fixed;shape=mxgraph.aws4.resourceIcon;resIcon=mxgraph.aws4.cloudformation;" vertex="1" parent="UEzPUAAOIrF-is8g5C7q-74">
          <mxGeometry x="90" y="289" width="78" height="78" as="geometry" />
        </mxCell>
        <mxCell id="tcK6pej3iTs73xDBp76l-23" value="&lt;h1&gt;2&lt;/h1&gt;&lt;p&gt;polls to see if the DNS is wired&lt;/p&gt;" style="text;html=1;strokeColor=none;fillColor=none;spacing=5;spacingTop=-20;whiteSpace=wrap;overflow=hidden;rounded=0;" vertex="1" parent="UEzPUAAOIrF-is8g5C7q-74">
          <mxGeometry x="250" y="59" width="130" height="81" as="geometry" />
        </mxCell>
        <mxCell id="tcK6pej3iTs73xDBp76l-24" value="&lt;h1&gt;6&lt;/h1&gt;&lt;p&gt;so the stack will continue..&lt;/p&gt;" style="text;html=1;strokeColor=none;fillColor=none;spacing=5;spacingTop=-20;whiteSpace=wrap;overflow=hidden;rounded=0;" vertex="1" parent="UEzPUAAOIrF-is8g5C7q-74">
          <mxGeometry x="50" y="399" width="190" height="81" as="geometry" />
        </mxCell>
        <mxCell id="tcK6pej3iTs73xDBp76l-25" value="&lt;h1&gt;5&lt;/h1&gt;&lt;p&gt;signal via HTTP the wait condition&lt;/p&gt;" style="text;html=1;strokeColor=none;fillColor=none;spacing=5;spacingTop=-20;whiteSpace=wrap;overflow=hidden;rounded=0;" vertex="1" parent="UEzPUAAOIrF-is8g5C7q-74">
          <mxGeometry x="230" y="399" width="190" height="81" as="geometry" />
        </mxCell>
      </root>
    </mxGraphModel>
  </diagram>
</mxfile>
